<?xml version="1.0" standalone="no"?>
<!DOCTYPE svg PUBLIC "-//W3C//DTD SVG 20010904//EN"
 "http://www.w3.org/TR/2001/REC-SVG-20010904/DTD/svg10.dtd">
<svg version="1.0" xmlns="http://www.w3.org/2000/svg"
 width="297.000000pt" height="83.000000pt" viewBox="0 0 297.000000 83.000000"
 preserveAspectRatio="xMidYMid meet">

<g transform="translate(0.000000,83.000000) scale(0.100000,-0.100000)"
fill="#000000" stroke="none">
<path d="M783 597 l-152 -92 1 -95 c0 -52 3 -126 7 -165 6 -64 7 -57 15 85 l8
155 139 83 c103 61 139 88 139 102 0 11 -1 20 -2 19 -2 0 -71 -42 -155 -92z"/>
<path d="M790 371 c0 -41 4 -71 10 -71 6 0 10 11 10 25 0 18 5 25 19 25 26 0
43 24 39 57 -3 24 -8 28 -40 31 l-38 3 0 -70z m55 24 c0 -11 -8 -21 -17 -23
-14 -3 -18 3 -18 23 0 20 4 26 18 23 9 -2 17 -12 17 -23z"/>
<path d="M1040 370 l0 -70 40 0 c22 0 40 5 40 10 0 6 -13 10 -30 10 -25 0 -30
4 -30 25 0 20 5 25 25 25 14 0 25 5 25 10 0 6 -11 10 -25 10 -16 0 -25 6 -25
15 0 9 9 15 24 15 14 0 28 5 31 10 4 6 -10 10 -34 10 l-41 0 0 -70z"/>
<path d="M1280 371 c0 -68 15 -99 22 -44 4 37 23 39 38 3 7 -16 19 -30 27 -30
13 0 13 4 -2 26 -15 23 -15 30 -4 51 18 34 1 57 -45 61 l-36 3 0 -70z m65 29
c0 -8 -10 -16 -22 -18 -18 -3 -23 2 -23 18 0 16 5 21 23 18 12 -2 22 -10 22
-18z"/>
<path d="M1540 370 c0 -40 4 -70 10 -70 6 0 10 16 10 35 0 31 3 35 25 35 14 0
25 5 25 10 0 6 -11 10 -25 10 -16 0 -25 6 -25 15 0 9 9 15 24 15 14 0 28 5 31
10 4 6 -10 10 -34 10 l-41 0 0 -70z"/>
<path d="M1780 370 c0 -70 16 -98 22 -37 2 24 8 33 26 35 30 5 28 22 -3 22
-16 0 -25 6 -25 15 0 9 9 15 25 15 14 0 25 5 25 10 0 6 -16 10 -35 10 l-35 0
0 -70z"/>
<path d="M2020 370 l0 -70 40 0 c45 0 55 17 13 22 -39 4 -39 42 0 46 33 4 26
22 -9 22 -15 0 -24 6 -24 15 0 10 10 15 30 15 17 0 30 5 30 10 0 6 -18 10 -40
10 l-40 0 0 -70z"/>
<path d="M2279 424 c-21 -25 -17 -93 6 -110 22 -16 61 -18 70 -4 3 6 -4 10
-17 10 -39 0 -50 14 -46 56 3 34 6 39 31 42 15 2 27 8 27 13 0 15 -57 10 -71
-7z"/>
</g>
</svg>
