<?xml version="1.0" standalone="no"?>
<!DOCTYPE svg PUBLIC "-//W3C//DTD SVG 20010904//EN"
 "http://www.w3.org/TR/2001/REC-SVG-20010904/DTD/svg10.dtd">
<svg version="1.0" xmlns="http://www.w3.org/2000/svg"
 width="256.000000pt" height="370.000000pt" viewBox="0 0 256.000000 370.000000"
 preserveAspectRatio="xMidYMid meet">

<g transform="translate(0.000000,370.000000) scale(0.100000,-0.100000)"
fill="#000000" stroke="none">
<path d="M2180 3254 c-30 -18 -72 -43 -93 -56 -21 -13 -51 -30 -65 -38 -15 -8
-52 -31 -82 -50 -66 -41 -184 -111 -297 -174 -45 -26 -85 -51 -88 -56 -4 -6
-23 -18 -43 -28 -54 -27 -116 -63 -122 -71 -3 -4 -36 -24 -75 -46 -38 -21 -83
-47 -98 -57 -15 -11 -53 -33 -85 -50 -31 -17 -66 -38 -77 -48 -11 -9 -36 -25
-55 -35 -19 -10 -52 -26 -72 -36 -20 -10 -39 -23 -43 -29 -3 -5 -43 -30 -90
-55 -62 -34 -86 -53 -93 -74 -20 -56 14 -1162 44 -1424 8 -71 14 -134 15 -140
0 -7 5 1 9 17 5 16 14 142 20 280 6 138 15 301 20 361 6 61 14 157 19 215 5
58 12 211 16 340 3 129 9 245 12 258 3 12 22 32 42 43 20 11 59 34 88 52 29
18 83 50 120 71 37 21 75 45 83 52 8 7 47 29 85 49 39 20 77 44 86 51 15 14
50 34 124 72 17 8 39 23 50 32 11 10 52 35 90 55 39 20 77 42 85 49 8 7 46 31
83 52 37 21 91 53 120 71 29 18 67 39 84 47 18 8 38 20 45 26 25 21 92 62 115
71 13 5 42 24 64 41 l41 33 -4 72 c-2 40 -8 76 -13 81 -6 5 -32 -4 -65 -24z"/>
</g>
</svg>
